<?xml version="1.0" encoding="utf-8"?>
<!-- Generator: Adobe Illustrator 23.0.3, SVG Export Plug-In . SVG Version: 6.00 Build 0)  -->
<svg version="1.1" id="Capa_1" xmlns="http://www.w3.org/2000/svg" xmlns:xlink="http://www.w3.org/1999/xlink" x="0px" y="0px"
	 viewBox="0 0 30 40.48" style="enable-background:new 0 0 30 40.48;" xml:space="preserve">
<style type="text/css">
	.st0{fill:#442E1D;}
</style>
<g>
	<path class="st0" d="M29.71,9.93c-0.26-0.3-0.61-0.54-0.65-0.99c0.08-0.05,0.08,0.07,0.14,0.07c0.37-0.11,0.49-0.46,0.25-0.78
		c-0.15-0.2-0.36-0.33-0.6-0.36c-0.28-0.04-0.51-0.13-0.73-0.26c-0.01,0.02-0.03,0.03-0.06,0.03c-0.05,0-0.08-0.01-0.09-0.06
		c0-0.02,0-0.04,0.01-0.06C27.66,7.29,27.37,7,27.05,6.73c0.68,0.26,0.72,0.24,0.89-0.38c0.12-0.42-0.21-0.45-0.5-0.51
		c0.19-0.08,0.48,0.07,0.56-0.17c0.08-0.26-0.16-0.43-0.32-0.59c-0.25-0.25-0.56-0.41-0.85-0.61c0.06-0.13,0.2-0.04,0.29-0.1
		c0.28-0.13,0.18-0.27,0.03-0.44c-0.33-0.37-0.84-0.58-0.98-1.11c-0.01-0.03-0.04-0.05-0.06-0.07c-0.35-0.53-0.91-0.68-1.48-0.86
		c-0.58-0.19-1.27,0.03-1.76-0.5c-0.09-0.1-0.27-0.01-0.42-0.01c-0.39,0-0.77,0.18-1.17,0.06c0.02-0.13,0.14-0.19,0.16-0.31
		c0.03-0.18-0.05-0.34-0.21-0.27c-0.47,0.19-1.06,0.15-1.34,0.7c-0.05,0.24-0.26,0.11-0.39,0.16c-0.24,0.04-0.37,0.22-0.54,0.36
		c-0.1,0.09-0.71-0.03-0.67-0.11c0.2-0.52-0.25-0.47-0.5-0.6c-0.37-0.19-0.39-0.63-0.04-0.87c0.12-0.08,0.26-0.14,0.21-0.31
		c-0.05-0.18-0.21-0.12-0.33-0.12c0,0.01,0,0.02,0,0.03C17.14,0.2,16.64,0.45,16.19,0c-0.22,0-0.44,0-0.67,0
		c-0.64,0.22-1.32,0.32-1.86,0.83C13.48,1.01,13.1,1.19,12.79,1c-0.46-0.28-1.01-0.3-1.47-0.51c-0.54-0.25-0.87,0.24-1.33,0.23
		c-0.11,0-0.09,0.14-0.04,0.23c0.14,0.26-0.02,0.38-0.23,0.46C9.38,1.55,9.27,1.86,9.21,2.17C9.18,2.31,9.37,2.5,9.1,2.59
		c-0.17,0.05-0.36,0.09-0.51,0c-0.35-0.2-0.72-0.25-1.1-0.35C6.9,2.1,6.36,2.3,5.8,2.31c-0.09,0-0.16,0.09-0.22,0.17
		c-0.41,0.48-0.8,0.96-1.54,0.86c-0.17-0.02-0.34,0.07-0.5,0.14C3.37,3.54,3.11,3.57,3.15,3.82C3.19,4.04,3.4,4.12,3.61,4.18
		C3.78,4.22,4,4.07,4.15,4.33c-0.4-0.06-0.3,0.37-0.52,0.49C3.29,5,3.09,5.35,2.79,5.58c-0.2,0.15-0.23,0.37-0.13,0.6
		C2.69,6.22,2.7,6.26,2.71,6.3c0.03-0.04,0.06-0.08,0.07-0.12c0.11,0.14,0.14,0.27-0.01,0.4C2.75,6.56,2.74,6.56,2.72,6.55
		c0,0.03,0,0.05,0.01,0.08C3.19,6.66,3.16,7,3.2,7.31C3.24,7.65,3.16,7.97,3.16,8.3C3.15,8.35,3.22,8.39,3.19,8.44
		C3.03,8.26,2.83,8.09,2.67,8.4C2.48,8.75,2.15,8.91,1.85,9.08C1.5,9.28,1.46,9.46,1.73,9.74c0.01,0.01,0.02,0.02,0.04,0.03
		C1.79,9.75,1.81,9.73,1.82,9.7c0.03,0.07,0.33,0.05,0.06,0.2C1.82,9.94,1.71,9.91,1.62,9.91c0-0.02,0-0.03,0-0.04
		C1.61,9.88,1.59,9.89,1.58,9.91c-0.05,0.42-0.18,0.73-0.67,0.83c-0.33,0.07-0.52,0.94-0.31,1.16c0.2,0.22,0.18,0.41-0.08,0.51
		c-0.21,0.08-0.21,0.2-0.16,0.37c0.03,0.09,0.18,0.18,0.04,0.28c-0.24,0.17-0.15,0.42-0.11,0.61c0.17,0.85,0.64,1.58,1.11,2.29
		c0.15,0.22,0.46,0.26,0.7,0.14c0.27-0.13,0.07-0.36,0.01-0.54c-0.01-0.04-0.03-0.09,0.02-0.16c0.15,0.38,0.38,0.72,0.77,0.77
		c0.37,0.05,0.73,0.13,1.1,0.13c0.02-0.02,0.03-0.03,0.04-0.05c-0.02,0.01-0.03,0.02-0.05,0.02c0.04-0.2-0.23-0.24-0.22-0.46
		c0.21,0.06,0.37,0.21,0.61,0.21c0.2,0,0.1,0.15-0.01,0.23c-0.07-0.17-0.12-0.18-0.18-0.15c0.03,0.02,0.05,0.05,0.03,0.11
		c-0.09,0.09-0.19,0.18-0.33,0.15c-0.55-0.12-1.02,0.17-1.52,0.28c-0.15,0.03-0.34,0.08-0.24,0.31c0.11,0.26-0.04,0.42-0.25,0.4
		c-0.26-0.02-0.39,0.12-0.53,0.26c-0.01,0.06-0.04,0.13-0.01,0.18c-0.06,0-0.13,0-0.19,0c-0.01-0.02-0.02-0.05-0.03-0.07
		c0,0,0,0-0.01,0C0.77,17.93,0.36,18,0.15,18.38c0,0.02,0,0.03,0,0.04c0.03-0.01,0.05-0.02,0.08-0.03
		c-0.07,0.16,0.01,0.18,0.15,0.18c0.35,0.01,0.64-0.14,0.92-0.32c0.1-0.06,0.25-0.14,0.31,0.04c0.05,0.13-0.08,0.21-0.18,0.24
		c-0.18,0.06-0.38,0.06-0.24,0.36c0.08,0.17-0.07,0.16-0.19,0.13c-0.11-0.03-0.2-0.13-0.32-0.13c-0.03,0.02-0.06,0.04-0.08,0.06
		c-0.01,0.13,0.15,0.2,0.15,0.33c-0.09,0.11-0.32-0.1-0.35,0.09c-0.05,0.27,0.27,0.35,0.38,0.59C0.35,19.82,0.34,20.37,0,20.38
		c0,0.19,0,0.38,0,0.57c0.23,0.17,0.66-0.04,0.78,0.43C0.5,21.39,0.23,21.19,0,21.43c0,0.03,0,0.06,0,0.1
		c0.18,0.1,0.35,0.19,0.56,0.3c0.03,0,0.05,0,0.08-0.01c-0.02,0.01-0.04,0.01-0.06,0.02c0.02,0.01,0.05,0.03,0.07,0.04
		C0.42,21.99,0.21,22.09,0,22.19c0,0.03,0,0.06,0,0.1c0.07,0.23,0.25,0.42,0.23,0.7c-0.03,0.49,0.13,0.66,0.67,0.79
		c0.04-0.02,0.08-0.04,0.11-0.06c-0.02,0-0.05,0-0.07-0.01c0.09-0.11-0.02-0.24,0.04-0.39c0.16,0.12,0.16,0.26,0.16,0.41
		c-0.02,0-0.05,0-0.07-0.01c0,0.02-0.01,0.04,0,0.07c0.06,0.26,0.16,0.53,0.48,0.46c0.27-0.07,0.48-0.28,0.73-0.43
		c0.14-0.09-0.13-0.24-0.01-0.37c0.28-0.02,0.56-0.14,0.86,0c-0.33,0.04-0.46,0.29-0.64,0.51c-0.4,0.48-0.65,1.09-1.28,1.37
		c-0.29,0.13-0.26,0.26,0.09,0.42c0.1,0.05,0.24,0.05,0.21,0.2c-0.02,0.11-0.14,0.11-0.23,0.13c-0.46,0.14-0.5,0.27-0.18,0.65
		c0.14,0.17,0.35,0.31,0.36,0.54c0,0.44,0.19,0.62,0.67,0.48c-0.06,0.35,0.06,0.63,0.15,0.91c0.1,0.3,0.38,0.35,0.61,0.38
		c0.22,0.03,0.19-0.25,0.26-0.39c0.06-0.11,0.1-0.24,0.07-0.37c-0.05-0.22,0.08-0.39,0.22-0.49c0.18-0.14,0.24,0.15,0.38,0.17
		c0.04,0.02,0.07,0.03,0.1,0.03c-0.03-0.03-0.06-0.06-0.09-0.09c0.41,0.11,0.33-0.25,0.41-0.45c0.18,0,0.2,0.15,0.25,0.26
		c0.13,0.26,0.15,0.46-0.25,0.38c-0.07-0.01-0.11,0.04-0.13,0.11c-0.01-0.01-0.02-0.03-0.04-0.04c0,0.02-0.01,0.03-0.01,0.05
		c0.34,0.78,0.29,0.87-0.54,1.02c-0.11,0.02-0.27,0.03-0.26,0.15c0.02,0.45-0.32,0.56-0.63,0.72c-0.22,0.12-0.35,0.59-0.25,0.83
		c0.01,0.13-0.1,0.04-0.14,0.08c-0.53,0.18-0.06,0.47-0.07,0.72c-0.11-0.05-0.25-0.21-0.29,0.02C1.81,32.06,2,32.32,2.2,32.54
		c0.18,0.19,0.38,0.06,0.55-0.06c0.14-0.1,0.26-0.18,0.38,0.03c0.19,0.32,0.4,0.25,0.57-0.07c0.07,0.26-0.33,0.64,0.25,0.63
		c0.23,0.02,0.01,0.18,0.07,0.25c0.12,0.28,0.25,0.17,0.37,0c0.11-0.15,0.06-0.34,0.15-0.54c0.19,0.18,0.45-0.03,0.62,0.09
		c0.44,0.31,0.69-0.1,1.03-0.19c0.11-0.03,0.11-0.5,0.33-0.1c0.02,0.03,0.09,0,0.13-0.03c0.22-0.16,0.49-0.31,0.43-0.62
		c-0.05-0.26,0.09-0.26,0.25-0.27c0.18-0.02,0.35,0.03,0.52,0.05c0.14,0.02,0.31,0.03,0.36-0.15c0.05-0.16,0.14-0.22,0.27-0.15
		c0.19,0.1,0.04,0.22-0.03,0.3c-0.2,0.25-0.21,0.53,0.11,0.6c0.34,0.07,0.58,0.32,0.89,0.42c0.25,0.08,0.46,0.37,0.78,0.11
		c0.11-0.09,0.1,0.07,0.12,0.12c0.2,0.39,0.27,0.39,0.52,0.02c0.11-0.15,0.18-0.3,0.13-0.48c-0.05-0.16,0.01-0.22,0.15-0.33
		c0.24-0.2,0.66-0.42,0.64-0.65c-0.03-0.43,0.24-0.56,0.44-0.79c0.07-0.08,0.11-0.19,0.11-0.31c-0.01-0.08-0.04-0.16-0.04-0.23
		c0.01-0.1,0.04,0,0.05,0c0.19,0.28,0.41,0.56,0.53,0.89c0.26,0.77,0.6,1.5,0.85,2.27c0.4,1.23,0.55,2.51,0.47,3.8
		c-0.06,0.92-0.21,1.83-0.43,2.72c-0.05,0.19-0.13,0.4,0.02,0.59c1.08,0,2.16,0,3.24,0c0.12-0.14,0.08-0.3,0.06-0.45
		c-0.23-2.29-0.14-4.59,0.01-6.88c0.04-0.58,0.11-1.17,0.28-1.73c0.15-0.5,0.5-0.78,0.98-0.86c0.31-0.05,0.62-0.11,0.94-0.11
		c0.01,0,0.03,0.01,0.04,0.01c0.04-0.01,0.07-0.03,0.08-0.08c0.13-0.01,0.25-0.01,0.42-0.02c-0.21,0.26-0.48,0.16-0.71,0.23
		c0-0.03,0.01-0.06,0.03-0.07c-0.03,0.01-0.05,0.03-0.07,0.06c-0.15,0.28,0.17,0.41,0.22,0.62c0.07,0.3,0.22,0.35,0.47,0.19
		c0.22-0.15,0.34-0.08,0.4,0.16c0.02,0.09,0.06,0.18,0.11,0.26c0.02,0.04,0.05,0.09,0.08,0.13c0,0,0,0,0,0c0-0.04,0-0.08,0-0.12
		c0.15,0.1,0.26,0.24,0.16,0.42c-0.05,0.09-0.13,0.03-0.19-0.03c-0.03,0.03-0.05,0.07-0.08,0.1c-0.01-0.02-0.02-0.03-0.03-0.05
		c-0.01,0.03-0.01,0.05-0.01,0.08c0.32,0.45,0.65,0.44,0.87-0.04c0.1-0.23,0.12-0.48,0.51-0.36c0.19,0.06,0.33-0.14,0.31-0.37
		c-0.01-0.14-0.14-0.25-0.11-0.42c0.26,0.02,0.44-0.11,0.56-0.33c0.55,0.42,0.88,0.33,1.14-0.26c0.11-0.25,0.26-0.47,0.43-0.68
		c0.13-0.16,0.24-0.44,0.43-0.4c0.29,0.07,0.69,0.16,0.84,0.32c0.21,0.24,0.37,0.34,0.67,0.38c0.19,0.03,0.34,0.1,0.42-0.13
		c0.07-0.22,0.31-0.45-0.04-0.65c-0.02-0.01-0.04-0.01-0.06,0c0,0.01,0,0.02,0,0.03c-0.44,0.13-0.27-0.16-0.27-0.34
		c0.25-0.04,0.12,0.24,0.27,0.27c0,0.01,0,0.02,0,0.03c0.03,0,0.05,0,0.08-0.01c0.12-0.36,0.46-0.49,0.74-0.68
		c0.15-0.1,0.39-0.12,0.38-0.37c0-0.1-0.04-0.17-0.1-0.22c0.33,0.17,0.67,0.33,1.04,0.43c0.34,0.09,0.41-0.01,0.33-0.4
		c-0.03-0.03-0.06-0.05-0.09-0.07c0,0.02,0,0.04-0.01,0.05c-0.1-0.05-0.27-0.08-0.19-0.23c0.05-0.09,0.15,0.03,0.2,0.09
		c0,0.02,0,0.04-0.01,0.06c0.02,0.02,0.05,0.03,0.08,0.03c0.24-0.03,0.31-0.21,0.3-0.41c-0.03-0.45-0.01-0.93-0.3-1.32
		c-0.2-0.27-0.2-0.5-0.04-0.78c0.1-0.18,0.16-0.38,0.22-0.57c0.07-0.25,0.01-0.48-0.17-0.66c-0.14-0.15-0.29-0.22-0.48-0.02
		c-0.08,0.08-0.17-0.05-0.21-0.12c-0.2-0.48-0.58-0.71-1.07-0.79c-0.02,0-0.03,0-0.05,0c0,0.01,0.01,0.03,0.01,0.04
		c-0.1-0.01-0.21,0.39-0.3-0.01c0-0.02,0-0.04,0-0.06c0,0,0,0,0,0c-0.22-0.15-0.45-0.3-0.65-0.48c-0.38-0.35-0.79-0.46-1.24-0.14
		c-0.24,0.17-0.44,0.11-0.65-0.03c-0.27-0.18-0.47-0.44-0.88-0.52c0.31-0.1,0.55-0.07,0.77-0.11c-0.01-0.02-0.02-0.03-0.03-0.05
		c0.18-0.07,0.05-0.32,0.23-0.39c-0.03,0.09-0.03,0.17-0.01,0.25c0.03-0.07,0.06-0.14,0.1-0.2c0.15-0.33-0.02-0.41-0.32-0.39
		c0.25-0.18,0.26-0.19,0.43-0.02c0.11,0.11,0.19,0.13,0.32,0.03c0.51-0.41,0.56-0.86,0.13-1.38c0-0.03-0.05-0.02-0.06-0.05
		c-0.01,0.01-0.03,0.03-0.04,0.04c-0.13-0.04-0.36-0.09-0.27-0.22c0.12-0.19,0.26,0.04,0.39,0.11c-0.02,0.02-0.04,0.04-0.06,0.06
		c0.01,0.02,0.03,0.03,0.04,0.05c0.2,0.1,0.29,0.54,0.63,0.22c0.01-0.03,0.02-0.07,0.03-0.1c-0.02,0.03-0.05,0.06-0.07,0.08
		c-0.02-0.16-0.06-0.33,0.02-0.51c0.11,0.09,0.17,0.18,0.14,0.32c-0.01,0.02-0.03,0.03-0.04,0.05c0.05,0.07,0.12,0.1,0.21,0.09
		c0.02,0,0.04-0.01,0.05-0.02c-0.01-0.01-0.02-0.02-0.03-0.03c0.05-0.11,0.07-0.26,0.23-0.24c0.06,0.01,0.15,0.11,0.14,0.16
		c-0.01,0.15-0.19,0.12-0.27,0.19c-0.01-0.01-0.02-0.02-0.03-0.03c-0.01,0.03-0.02,0.05-0.02,0.09c0.01,0.06,0.03,0.12,0.05,0.18
		c0.08,0.25,0.11,0.51,0.28,0.73c0.18,0.22,0.38-0.2,0.58,0.08c0.07,0.09,0.25-0.24,0.34-0.42c0-0.01,0.01-0.03,0.01-0.04
		c-0.03-0.01-0.05-0.02-0.08-0.03c-0.01-0.08-0.02-0.15,0.06-0.2c0.03,0.01,0.07,0.02,0.1,0.03c0,0,0,0,0,0
		c0.15-0.28,0.36-0.51,0.63-0.68c0,0,0.01-0.01,0.01-0.01c-0.01,0.01-0.02,0.01-0.04,0.01c0.01-0.19-0.05-0.36-0.11-0.54
		c-0.02-0.06-0.08-0.17,0.01-0.2c0.1-0.04,0.13,0.1,0.2,0.15c0.04,0,0.07,0,0.11,0c0.01,0,0.02,0.01,0.03,0.01
		c0.38-0.18,0.46-0.46,0.35-0.86c-0.1-0.35-0.4-0.64-0.29-1.05c0.02-0.06-0.08-0.13-0.14-0.18c-0.2-0.17-0.35-0.39-0.64-0.43
		c0.08-0.17,0.2-0.2,0.31-0.26c0.28-0.15,0.13-0.26-0.04-0.36c0,0,0,0,0,0c0.01,0.02,0.02,0.04,0.02,0.06
		c-0.14,0.04-0.27,0.07-0.41,0.11c-0.24,0.27-0.52,0.33-0.85,0.18c-0.13-0.04-0.16-0.16-0.11-0.24c0.06-0.08,0.16-0.03,0.23,0.04
		c0.22,0.01,0.5,0.12,0.43-0.3c-0.03-0.21,0.04-0.39,0.27-0.43c0.25-0.04,0.32,0.12,0.35,0.33c0.01,0.08,0.1,0.03,0.16,0.03
		c-0.01,0.03-0.02,0.05-0.04,0.08c0.2-0.01,0.37,0.24,0.57,0.08c0.2-0.17,0.37-0.07,0.51,0.05c0.28,0.24,0.51,0.06,0.73-0.07
		c0.22-0.14,0.14-0.36,0.04-0.55c-0.1-0.19-0.12-0.36,0.08-0.49c0.18-0.12,0.15-0.27,0.11-0.46c-0.07-0.33-0.43-0.67-0.01-1.03
		c0.07-0.06-0.03-0.19-0.11-0.23c-0.45-0.23-0.59-0.69-0.82-1.09c-0.01,0.01-0.02,0.02-0.03,0.04c-0.28-0.01-0.56-0.02-0.84-0.03
		c-0.1,0-0.2-0.03-0.21-0.14c-0.02-0.12,0.1-0.13,0.17-0.18c0.03-0.02,0.05-0.03,0.08-0.04c-0.07-0.02-0.05-0.06,0.03-0.11
		c0.06-0.02,0.09-0.13,0.18-0.06l0,0l0,0c-0.05-0.1-0.1-0.2-0.16-0.3c0.26,0,0.26,0,0.16,0.3c0.08-0.07,0.19,0.04,0.27-0.04
		c0.05-0.06,0.11-0.08,0.15,0.01c0.03,0.07,0.1,0.15,0.05,0.23c0.11,0.04,0.21,0.1,0.32,0.14c-0.03,0.03-0.05,0.06-0.08,0.09
		c0.02,0,0.04-0.01,0.06-0.01c0.31-0.24,0.39-0.68,0.76-0.87c0.04-0.02,0.05-0.09,0.03-0.13c-0.23-0.42,0.18-0.49,0.37-0.68
		c0-0.03,0-0.06,0-0.1C29.92,10.15,29.81,10.05,29.71,9.93z M2.64,31.1c-0.12,0.09-0.25,0.02-0.37-0.03
		c0.1-0.03,0.19-0.06,0.29-0.09C2.62,31,2.68,31.06,2.64,31.1z M4.19,32.93c-0.02,0.11-0.05,0.21-0.08,0.31
		c-0.07-0.09,0.03-0.24-0.11-0.3c0.04-0.05,0.07-0.12,0.11-0.13C4.19,32.79,4.2,32.88,4.19,32.93z M7.78,18.76
		c-0.01,0.08-0.1,0.02-0.16,0.03c0-0.03,0-0.07,0-0.1C7.69,18.69,7.79,18.65,7.78,18.76z M7.07,12.86c0.2-0.14,0.51,0.15,0.67-0.16
		C7.62,13.2,7.34,13.01,7.07,12.86z M7.2,9.65c0.02,0.01,0.05,0.01,0.07-0.01c0.06,0.16,0.12,0.32,0.18,0.48
		c0.16,0.16-0.03,0.44,0.25,0.59c0.07,0.04-0.08,0.3-0.28,0.22c-0.31-0.12-0.56,0.02-0.82,0.16c-0.18-0.09-0.01-0.25,0-0.26
		c0.38-0.05,0.4-0.46,0.64-0.64C7.05,10.03,7.23,9.83,7.2,9.65z M6.75,11.34c-0.09,0.03-0.18,0.06-0.24-0.04
		c-0.06-0.1,0.02-0.13,0.09-0.16C6.71,11.16,6.74,11.24,6.75,11.34z M6.63,8.52c0.05,0.01,0.1,0.1,0.05,0.16
		c-0.12,0.16-0.3,0.1-0.58,0.15C6.32,8.6,6.44,8.47,6.63,8.52z M6.42,9.36c0.32-0.06,0.6-0.08,0.59,0.38
		c-0.02,0.13-0.08,0.24-0.21,0.3c-0.04-0.1,0.02-0.23-0.11-0.3C6.58,9.82,6.46,9.9,6.33,9.77C6.23,9.64,6.14,9.5,6.05,9.36
		C6.18,9.19,6.3,9.39,6.42,9.36z M5.74,9.35c0.36,0.05,0.19,0.31,0.2,0.5c-0.19,0.11-0.38,0.17-0.65,0.09
		C5.47,9.73,6.07,9.86,5.74,9.35z M5.67,18.06c-0.09-0.03-0.26,0.04-0.23-0.17c0.1-0.02,0.15,0.07,0.23,0.11
		C5.67,18.02,5.67,18.04,5.67,18.06z M3.72,5.9c0.04-0.01,0.09,0,0.17,0.01c-0.1,0.12-0.2,0.14-0.24,0.09
		C3.52,5.87,3.68,5.91,3.72,5.9z M3.24,8.6c0-0.07,0-0.15,0-0.22c0.05,0.07,0.1,0.15,0.14,0.23c0.02,0.05,0.05,0.13-0.05,0.12
		C3.27,8.72,3.23,8.67,3.24,8.6z M2.78,15.52c-0.03,0-0.09-0.05-0.09-0.07c0.02-0.07,0.04-0.15,0.09-0.19
		c0.07-0.05,0.09,0.03,0.1,0.09C2.87,15.42,2.88,15.51,2.78,15.52z M3.31,15.63c-0.2,0.01-0.21-0.14-0.22-0.3
		c0.31-0.03-0.27-0.45,0.2-0.39c0.18,0.02,0.41,0.11,0.41,0.33C3.69,15.47,3.52,15.62,3.31,15.63z M4.39,12.87
		c-0.09,0-0.18,0-0.28,0c-0.16,0.22-0.48,0.07-0.65,0.28c-0.08-0.22-0.03-0.53-0.39-0.55c0-0.03,0-0.07-0.01-0.1
		c-0.01-0.03-0.01-0.05,0-0.07c-0.12-0.08-0.25-0.13-0.36-0.22c0-0.03,0-0.05-0.01-0.07c0.38-0.01,0.17-0.41,0.36-0.54
		c-0.09-0.2-0.59-0.47,0.08-0.54c0.04-0.17-0.29-0.19-0.16-0.34c0.19-0.2,0.41-0.41,0.66-0.51c0.17-0.07,0.42,0.02,0.63,0.07
		c0.11,0.03,0.28,0.09,0.22,0.24c-0.04,0.1,0.07,0.32-0.15,0.31c-0.24-0.01-0.29,0.27-0.51,0.26c0.09,0.24,0.28,0.08,0.39,0.17
		c0.01,0.01,0.01,0.02,0.02,0.02c0.09,0.12,0.35,0.25-0.04,0.34v0c-0.06,0-0.07,0.04-0.07,0.09c-0.03,0.05-0.05,0.11-0.09,0.15
		c0.05,0.13-0.09,0.16-0.15,0.22c-0.11,0.04-0.21,0.07-0.28,0.15c-0.03,0.04-0.04,0.08-0.04,0.11c0.01,0.22,0.17,0,0.23,0.06
		c0.04,0.04,0.05,0.1,0.08,0.15c0.14,0.06,0.29,0.05,0.43,0.03c-0.01-0.02-0.03-0.04-0.03-0.06c-0.02-0.09,0-0.16,0.04-0.24
		c-0.03-0.02-0.05-0.04-0.08-0.06c0.08-0.31,0.08-0.31,0.47-0.29c0.2-0.07,0.03-0.32,0.18-0.41h0c0-0.03,0.01-0.06,0.02-0.09
		c-0.12-0.15-0.29-0.31-0.02-0.48c0.15-0.26,0.27-0.55,0.64-0.72c-0.07,0.37-0.31,0.53-0.5,0.73c0.03,0.08-0.06,0.21,0.04,0.25
		c0.17,0.06,0.1-0.08,0.11-0.16c0.03-0.19,0.13-0.13,0.21-0.05c0.09,0.09,0.08,0.28,0.28,0.24c-0.17,0.13-0.34,0.25-0.51,0.38
		c-0.02,0.09-0.07,0.15-0.17,0.15c-0.01,0.12-0.08,0.18-0.18,0.23c0,0.06,0,0.12,0,0.18c0.09,0.03,0.18,0.06,0.27,0.09
		c0.02,0.08,0.01,0.15-0.07,0.2c0,0.24,0.26,0.18,0.36,0.31c0.18-0.01,0.1,0.12,0.07,0.17c-0.08,0.15-0.17,0.01-0.26,0
		c0-0.04,0-0.07,0-0.11C4.99,12.77,4.8,12.72,4.6,12.7C4.55,12.78,4.49,12.85,4.39,12.87z M1.96,22.35
		c-0.01,0.05-0.06,0.09-0.09,0.14c-0.09-0.06-0.13-0.12-0.11-0.2c0.01-0.05,0.07-0.14,0.1-0.14C1.95,22.17,1.98,22.25,1.96,22.35z
		 M2.5,22.96c-0.16,0.08-0.26-0.01-0.33-0.15c0.14-0.07,0.26-0.1,0.37,0.04C2.55,22.87,2.53,22.95,2.5,22.96z M3.55,19.35
		c-0.02-0.03-0.03-0.07-0.05-0.1c-0.02-0.03-0.05-0.08-0.08-0.04c-0.23,0.42-0.23,0.43-0.77,0.36c-0.04-0.07-0.06-0.13-0.01-0.2
		c0.08-0.11,0.12,0.02,0.18,0.04c0.19,0.07,0.32-0.06,0.45-0.14c0.13-0.08-0.04-0.16-0.06-0.25L3.19,19l-0.02,0
		C3,19.12,2.84,19.19,2.77,18.9c-0.03-0.14-0.09-0.16-0.17-0.02c-0.01,0.01-0.08-0.02-0.12-0.03c-0.04,0.01-0.08,0-0.11,0.02
		c-0.28,0.19-0.4,0.14-0.45-0.19c0.17-0.28,0.3-0.02,0.44,0.03c0.03,0.01,0.06,0.08,0.11,0.08c-0.02-0.13-0.1-0.26,0-0.39
		c0.05-0.02,0.1-0.02,0.15-0.02c-0.06-0.05-0.16-0.09-0.05-0.19l0.02-0.02c0.05,0,0.14-0.02,0.16,0c0.13,0.15,0.17,0.15,0.17-0.06
		c0-0.1,0.07-0.01,0.11,0c-0.04,0.11-0.08,0.22-0.12,0.34v0c0.05,0.05,0.11,0.1,0.06,0.17c-0.02,0.04-0.06,0.02-0.07-0.02
		c-0.04,0.01-0.09,0.01-0.11,0.06c0.16,0.1,0.35,0.02,0.52,0.05c0.06,0.01,0.04,0.05,0.05,0.08c0.16-0.01,0.18,0.09,0.16,0.21l0,0
		c0.28-0.13,0.25,0.05,0.22,0.22l0,0v0C3.74,19.36,3.7,19.47,3.55,19.35z M3.95,23.28c-0.14-0.03-0.28-0.06-0.31-0.23
		c-0.02-0.1,0.04-0.2,0.15-0.18c0.16,0.03,0.23,0.18,0.32,0.29C4.09,23.28,4.04,23.3,3.95,23.28z M3.91,18.89
		c0.25,0.23,0.35,0.48,0.47,0.72C4.09,19.64,3.97,19.46,3.91,18.89z M4.08,18.76c0.13,0.09,0.27,0.06,0.28,0.23
		c0,0.04-0.03,0.09-0.09,0.09C4.11,19.05,4.13,18.92,4.08,18.76z M4.83,18.47c-0.12,0-0.25,0.1-0.38,0c-0.11-0.08-0.2-0.15-0.12-0.3
		c0,0,0,0,0,0c0,0,0,0,0,0c-0.15-0.06-0.29-0.13-0.09-0.31c0.06,0.09,0.09,0.19,0.09,0.31c0,0,0,0,0,0c0,0,0,0,0,0
		c0.19-0.03,0.3,0.18,0.49,0.18C4.9,18.36,4.87,18.47,4.83,18.47z M4.96,17.75c-0.05-0.09-0.05-0.17,0.09-0.25
		c-0.04,0.11,0.1,0.17,0.01,0.27C5.04,17.78,4.97,17.77,4.96,17.75z M5.28,19.63c-0.05,0-0.09-0.01-0.11-0.06
		c-0.15,0.05-0.1-0.1-0.15-0.15c0.07,0,0.15-0.01,0.21,0.05C5.35,19.48,5.36,19.54,5.28,19.63z M5.49,19.51
		c-0.07-0.06,0-0.28-0.2-0.18c-0.08,0.04-0.07-0.03-0.04-0.06c0.09-0.1,0-0.17-0.03-0.25c-0.05,0.04-0.07,0.12-0.16,0.11
		c0.04-0.11,0.02-0.28,0.22-0.18C5.66,19.22,5.67,19.26,5.49,19.51z M5.78,19.14c-0.21-0.04-0.37-0.13-0.44-0.35
		c0.03,0,0.07,0,0.1,0c0.16-0.06,0.45-0.05,0.17-0.33l0,0c-0.07,0.01-0.15,0.13-0.21,0.02c-0.03-0.06-0.09-0.16-0.03-0.22
		c0.05-0.05,0.14-0.09,0.22-0.03c0.09,0.07,0.15,0.02,0.19-0.06c0.03,0,0.05,0.01,0.06,0.04c0.01,0.06,0.08,0.13,0.01,0.19
		c0,0,0,0,0,0c0,0.05-0.01,0.11-0.01,0.16c0.09,0.02,0.2-0.11,0.27,0.09c0.06,0.17-0.07,0.19-0.12,0.21
		c-0.11,0.05-0.09,0.12-0.09,0.2c0.08,0.21,0.23-0.13,0.32,0.07C6.07,19.2,5.94,19.34,5.78,19.14z M6.2,18.48
		c-0.02-0.02,0.01-0.08,0.02-0.13c0.05,0.02,0.1,0.04,0.12,0.1C6.29,18.46,6.25,18.54,6.2,18.48z M6.86,18.93
		c-0.05,0.05-0.11,0.01-0.14-0.02c-0.11-0.1,0.05-0.13,0.07-0.21C6.79,18.79,6.96,18.82,6.86,18.93z M6.55,18.18
		c-0.1,0.05-0.16,0-0.21-0.07c-0.06-0.09,0.04-0.15,0.08-0.17c0.17-0.07,0.36-0.3,0.53,0.06C6.82,18.06,6.68,18.11,6.55,18.18z
		 M6.84,12.69c-0.05,0-0.09-0.02-0.08-0.08c0.02-0.11,0.03-0.22,0.18-0.22c-0.12-0.2-0.46-0.09-0.51-0.41
		c-0.06-0.36,0.04-0.5,0.42-0.47c0.11,0.01,0.22,0,0.33,0.01c0.03,0,0.06,0.01,0.09,0.01c0.19,0.07-0.01,0.14,0,0.21
		c0.02,0.02,0.02,0.05,0.01,0.08c0.2,0.07,0.19,0.24,0.19,0.4c0.1,0.12,0.08,0.23-0.06,0.28c-0.12,0.05-0.15-0.05-0.15-0.15
		c-0.05,0.02-0.1,0.05-0.16,0.07C7.07,12.56,7.01,12.68,6.84,12.69z M7.76,20.1c-0.05,0.06-0.1-0.02-0.15-0.03
		c-0.1-0.07-0.19-0.13-0.33-0.08c-0.16,0.06-0.17-0.09-0.21-0.18c0-0.05,0-0.1,0-0.15c-0.04-0.13,0.06-0.14,0.13-0.19
		c0-0.01,0.01-0.01,0.02-0.01c0.02,0,0.04,0,0.06-0.01c0,0,0,0,0,0l0,0c0.12-0.1,0.29,0.03,0.4-0.09c0,0,0.05,0.02,0.06,0.04
		c0.01,0.01-0.01,0.06-0.02,0.06c-0.15,0.03-0.29,0.17-0.44,0l0,0c0,0.09,0,0.17-0.01,0.26c0.1,0.03,0.2,0.06,0.28,0.13
		c0.07,0.02,0.14,0.05,0.17,0.12C7.76,20.02,7.8,20.06,7.76,20.1z M7.73,19.22c-0.02-0.01-0.03-0.04-0.05-0.06
		c0.12-0.06,0.17-0.26,0.38-0.17c-0.01,0.02-0.01,0.05-0.03,0.06C7.93,19.1,7.91,19.3,7.73,19.22z M8.03,18.07
		c0.06,0.01,0.03,0.07,0.03,0.11c-0.05,0.02-0.05,0.19-0.16,0.06c0.04,0,0.06-0.03,0.06-0.07C7.96,18.11,7.95,18.05,8.03,18.07z
		 M8.01,12.39C7.99,12.4,7.96,12.4,7.93,12.4c-0.03-0.1-0.06-0.19-0.09-0.29c0.07-0.25,0.16-0.17,0.27-0.02
		C8.08,12.19,8.05,12.29,8.01,12.39z M7.97,19.43c0.04-0.01,0.08,0.02,0.06,0.06c-0.01,0.03-0.06,0.04-0.09,0.07
		c-0.02-0.02-0.04-0.04-0.05-0.06C7.91,19.47,7.94,19.44,7.97,19.43z M8.1,20.2c-0.09-0.02-0.23,0-0.16-0.15
		c-0.03-0.09-0.02-0.17,0.06-0.16c0.1,0.02,0.17,0.11,0.19,0.22C8.19,20.16,8.18,20.22,8.1,20.2z M8.22,10.41
		c0,0.08,0,0.16-0.01,0.23c-0.01,0.12,0.03,0.26-0.12,0.32c-0.03,0.01-0.1,0-0.12-0.03c-0.09-0.11-0.19-0.27-0.1-0.38
		c0.16-0.19,0.09-0.45,0.27-0.62C8.22,9.8,8.29,9.84,8.3,9.96C8.32,10.11,8.31,10.27,8.22,10.41z M8.32,19.92
		c0.03,0.13,0.06,0.26,0.09,0.38C8.23,20.2,8.2,20.08,8.32,19.92z M10.48,8.28c0.06,0.16,0.08,0.2,0.09,0.24
		c0.02,0.06,0.02,0.12-0.05,0.14c-0.03,0.01-0.09-0.03-0.1-0.06C10.42,8.55,10.44,8.5,10.48,8.28z M8.56,9.69
		C8.55,9.52,8.71,9.6,8.8,9.58c0.14-0.04,0.24-0.06,0.28,0.11c0,0.11-0.12,0.22-0.15,0.2C8.83,9.78,8.57,9.91,8.56,9.69z M8.6,12.22
		c-0.01-0.2,0.02-0.35,0.28-0.29C8.83,12.07,9.01,12.44,8.6,12.22z M9.45,16.35c0.12,0.12,0.24,0.21,0.13,0.3
		c-0.13,0.11-0.14-0.03-0.15-0.12C9.42,16.5,9.43,16.45,9.45,16.35z M9.59,32.17c-0.02,0.02-0.11-0.01-0.12-0.03
		c-0.06-0.18,0.02-0.29,0.2-0.4C9.73,31.94,9.72,32.07,9.59,32.17z M10.3,12.4c0.05,0.13-0.06,0.21-0.11,0.3l-0.03,0.01l-0.03-0.02
		c-0.2,0.13-0.36-0.34-0.6-0.05c-0.04,0.05-0.11-0.12-0.1-0.2c0.04-0.22-0.04-0.42-0.1-0.62c0.02-0.13-0.47,0.07-0.16-0.25
		c-0.09-0.07-0.18-0.18-0.29-0.03c-0.07-0.04-0.13-0.08-0.2-0.12c-0.06-0.43,0.2-0.66,0.59-0.51c0.12-0.04,0.27-0.04,0.3-0.22
		c0.34-0.08,0.32,0.26,0.44,0.41c0.06,0.07,0.1,0.18,0.17,0.25c-0.01,0.07,0.03,0.16-0.07,0.2c0,0.06,0,0.13-0.01,0.19
		c-0.01,0.03-0.01,0.05,0,0.08c0.06,0,0.13-0.01,0.2-0.01c0,0.04,0,0.07,0,0.11C10.32,12.08,10.42,12.24,10.3,12.4z M10.22,8.87
		c0.14-0.22,0.3,0.04,0.46,0c0.1-0.02,0.14,0,0.11,0.11c-0.03,0.16-0.01,0.34-0.22,0.4c-0.09,0.02-0.12-0.01-0.16-0.09
		C10.32,9.16,10.09,9.08,10.22,8.87z M10.4,11.74c0.03-0.13,0.06-0.24,0.11-0.42C10.64,11.55,10.55,11.65,10.4,11.74z M10.52,11.25
		c0.03-0.13,0.06-0.26,0.09-0.4c0.15,0.11,0.15,0.24,0.16,0.38C10.69,11.23,10.6,11.24,10.52,11.25z M12.27,30.39
		c-0.03-0.13-0.07-0.26-0.1-0.4c-0.01-0.06,0.01-0.14,0.08-0.12c0.04,0.01,0.07,0.09,0.11,0.14C12.21,30.1,12.36,30.28,12.27,30.39z
		 M12.95,16.83c-0.55-0.01-0.94,0.55-1.52,0.4c-0.1,0.18-0.23,0.38-0.47,0.24c-0.19-0.12-0.24-0.32-0.06-0.53
		c0.15,0.03,0.16,0.45,0.42,0.17c0.12-0.4,0.29-0.69,0.78-0.44c0.02,0,0.03-0.01,0.05-0.01c0.7,0.01,0.7,0.01,1.04-0.63
		C13.17,16.37,13.18,16.64,12.95,16.83z M13.42,23.94c-0.23,0-0.23-0.16-0.26-0.31c-0.02-0.11,0.07-0.29,0.11-0.24
		c0.11,0.11,0.34,0.04,0.38,0.22C13.57,23.74,13.64,23.93,13.42,23.94z M15.2,23.18c0.19-0.23,0.4-0.05,0.72-0.06
		c-0.26,0.2-0.4,0.37-0.63,0.25C15.24,23.34,15.18,23.2,15.2,23.18z M15.12,12.94c-0.2-0.02-0.3-0.03-0.4-0.04
		C14.82,12.8,14.91,12.78,15.12,12.94z M15.01,23.7c-0.18-0.06-0.18-0.2-0.16-0.34c0-0.02,0.1-0.05,0.11-0.04
		C15.07,23.43,15.08,23.56,15.01,23.7z M13.67,17.3c0.08-0.33,0.21-0.38,0.43-0.34C14.07,17.21,13.89,17.18,13.67,17.3z M15.63,28.7
		c-0.09,0.02-0.13,0.07-0.14,0.12c0.01,0.04,0,0.09-0.01,0.14c0.01,0.08,0.01,0.16-0.04,0.21c0,0.06,0,0.12-0.01,0.18
		c-0.02,0.17-0.33,0.25-0.13,0.49c0.19,0.22,0.37,0,0.57,0c-0.26,0.77-0.52,1.53-0.78,2.28c-0.05,0.15-0.14,0.35-0.3,0.11
		c-0.47-0.69-0.69-1.48-0.76-2.31c-0.01-0.08,0.04-0.19,0.16-0.19c0.22-0.01,0.44-0.03,0.66-0.04c0.08-0.13,0.05-0.27,0.03-0.41
		c-0.08-0.36,0.05-0.58,0.43-0.63c0.6-0.29-0.05-0.54-0.02-0.82c0.07-0.08,0.17-0.03,0.25,0c0.24,0.1,0.64,0.08,0.65,0.38
		C16.19,28.41,15.9,28.63,15.63,28.7z M17.33,22.67c-0.21,0-0.4,0.06-0.55,0.2c-0.16,0.09-0.32,0.14-0.47,0.02
		c-0.05-0.04,0-0.11,0.06-0.15c0.15-0.16,0.33-0.19,0.54-0.18c0,0,0,0,0,0c0.27-0.1,0.55-0.14,0.82,0.01
		C17.67,22.87,17.47,22.66,17.33,22.67z M17.86,29.88c-0.05,0.02-0.14,0-0.11-0.09c0.02-0.07,0.07-0.14,0.13-0.17
		C17.94,29.6,18,29.63,18,29.74C18,29.81,17.93,29.86,17.86,29.88z M28.21,26.48c0.1,0,0.16,0.06,0.16,0.14
		c0.01,0.09-0.06,0.14-0.15,0.14c-0.06,0-0.12-0.03-0.13-0.11C28.09,26.56,28.14,26.51,28.21,26.48z M26.94,27.79
		c-0.02,0.04-0.03,0.08-0.05,0.11c0.02-0.01,0.05,0.02,0.07,0.01c0.05,0.03,0.1,0.05,0.16,0.08c-0.05-0.02-0.11-0.03-0.16-0.05
		c-0.02-0.01-0.05-0.02-0.07-0.02c-0.01,0.03-0.03,0.06-0.04,0.09c-0.11-0.01-0.2-0.04-0.27-0.19
		C26.7,27.82,26.82,27.81,26.94,27.79z M25.41,27.35l-0.04,0l-0.04-0.01c0.02-0.11,0.19-0.13,0.16-0.27
		c-0.17-0.29,0.11-0.36,0.25-0.41c0.22-0.08,0.35,0.06,0.34,0.31c0.13-0.02,0.26-0.05,0.39,0.02c0.11-0.03,0.22-0.07,0.34-0.01
		c-0.05,0.09-0.1,0.18-0.15,0.28c0,0,0,0,0,0c-0.09,0.21-0.32,0.17-0.47,0.28c-0.11,0.32-0.6,0.53-1.05,0.43
		C25.36,27.8,25.75,27.71,25.41,27.35z M24.75,27.8c0.1-0.02,0.06,0.08,0.1,0.1c0,0.09-0.04,0.13-0.11,0.11
		c-0.03-0.01-0.07-0.05-0.08-0.08C24.65,27.86,24.69,27.81,24.75,27.8z M24.14,27.48c0.14,0.18,0.24,0.3,0.4,0.52
		C24.25,27.86,24.12,27.77,24.14,27.48z M24.32,25.22c-0.25-0.24-0.51-0.41-0.49-0.76C24.38,24.61,24.48,24.75,24.32,25.22z
		 M23.61,23.05c0.03-0.11,0.13-0.12,0.22-0.13c0.07-0.01,0.13,0.06,0.1,0.11c-0.05,0.07-0.14,0.1-0.2,0.14
		C23.63,23.16,23.59,23.12,23.61,23.05z M23.41,27.71c0.03,0.01,0.05,0.08,0.04,0.12c-0.01,0.05,0,0.13-0.12,0.15
		c-0.01-0.05-0.03-0.11-0.03-0.16C23.31,27.75,23.33,27.68,23.41,27.71z M26.47,20.29c0.09,0,0.16,0.05,0.18,0.13
		c0.01,0.06-0.04,0.12-0.12,0.12c-0.09,0-0.16-0.04-0.17-0.13C26.35,20.35,26.39,20.28,26.47,20.29z M29.13,15.58
		c-0.16,0.1-0.26,0.03-0.34-0.11C28.95,15.39,29.05,15.44,29.13,15.58z M28.96,14.8c-0.26-0.04-0.36-0.16-0.43-0.38
		C28.77,14.42,28.9,14.51,28.96,14.8z M28.36,12.24C28.36,12.24,28.37,12.24,28.36,12.24C28.37,12.24,28.37,12.24,28.36,12.24
		C28.37,12.24,28.37,12.24,28.36,12.24c-0.02,0.05,0.04,0.13-0.05,0.15c-0.02,0-0.06-0.03-0.06-0.05
		C28.24,12.24,28.3,12.24,28.36,12.24z M28.52,9.63c0.07-0.04,0.13-0.1,0.2-0.15c-0.05,0.11,0.19,0.34-0.11,0.34
		c-0.06,0-0.16,0.06-0.18-0.06C28.4,9.69,28.45,9.66,28.52,9.63z M28.41,10.37c0.11-0.02,0.23-0.07,0.32,0.05
		c0.01,0.06,0.06,0.13-0.06,0.11c-0.08-0.01-0.16-0.04-0.24-0.07C28.36,10.45,28.35,10.39,28.41,10.37z M27.06,5.28
		c0.07-0.01,0.16-0.01,0.15,0.1c-0.01,0.15-0.07,0.25-0.2,0.33c-0.12-0.02-0.12-0.11-0.14-0.19C26.85,5.38,26.92,5.3,27.06,5.28z
		 M26.59,4.29c0.15-0.03,0.31,0.01,0.47,0.01c-0.11,0.18-0.35,0-0.47,0.16C26.48,4.4,26.44,4.32,26.59,4.29z M26.6,4.8
		c0.07,0.23,0.14,0.39-0.13,0.41c0.01-0.15-0.11-0.11-0.18-0.12C26.3,4.88,26.61,5.09,26.6,4.8z M26.28,5.1
		c-0.05,0.08-0.06,0.19-0.19,0.19C26.14,5.21,26.15,5.09,26.28,5.1z M25.58,5.35c0.06-0.01,0.06,0.07,0.06,0.12
		c-0.04,0.03-0.09,0.05-0.13,0.08C25.51,5.47,25.46,5.37,25.58,5.35z M25.08,5.37c0.11,0.06,0.12,0.13,0.07,0.24
		C25.09,5.54,25.03,5.48,25.08,5.37z M24.47,4.3c0.11,0.11,0.24,0.08,0.41,0.01c-0.14,0.34-0.39,0.04-0.54,0.16
		C24.33,4.36,24.44,4.36,24.47,4.3z M24.7,6.21c-0.01,0.04-0.04,0.08-0.09,0.07c-0.05-0.01-0.07-0.05-0.06-0.09
		c0.01-0.02,0.04-0.05,0.06-0.05C24.66,6.14,24.7,6.16,24.7,6.21z M24.46,4.77c-0.08-0.08-0.22,0.14-0.27-0.06
		C24.28,4.71,24.39,4.66,24.46,4.77z M22.62,3.92c0.1,0,0.07-0.11,0.12-0.15c0.02-0.04,0.04-0.07,0.07-0.1
		c0.07,0.04,0.14,0.08,0.22,0.12c-0.17,0.17-0.31,0.38-0.58,0.39C22.5,4.09,22.56,4.01,22.62,3.92z M22.79,5.13
		c-0.01,0.01-0.06,0.01-0.08-0.01c-0.06-0.07-0.08-0.15,0.04-0.23C22.78,4.98,22.84,5.05,22.79,5.13z M22.06,4.57L22.06,4.57
		C22.06,4.57,22.06,4.57,22.06,4.57c0.15-0.07,0.25-0.19,0.32-0.33c0.01,0.17-0.14,0.38,0.15,0.47c0.07,0.02,0.11,0.15,0.05,0.18
		C22.37,5,22.31,5.25,22.1,5.33c-0.17,0.07-0.21-0.11-0.31-0.17C21.95,4.99,21.93,4.75,22.06,4.57C22.06,4.57,22.06,4.57,22.06,4.57
		z M20.9,4.13c0.13-0.03,0.11,0.14,0.23,0.13c-0.04,0.03-0.06,0.05-0.08,0.06C20.84,4.38,20.89,4.25,20.9,4.13z M20.75,9.99
		c0.06,0,0.12,0.04,0.13,0.12c0,0.09-0.05,0.14-0.13,0.15c-0.06,0.01-0.14-0.01-0.13-0.09C20.61,10.08,20.64,9.99,20.75,9.99z
		 M20.16,5.37c0.09,0.02,0.08,0.09,0.08,0.15c0.01,0.07-0.04,0.09-0.1,0.09c-0.07,0-0.14-0.02-0.11-0.11
		C20.06,5.45,20.1,5.39,20.16,5.37z M19.79,6.13C19.57,6.16,19.6,6,19.6,5.87c0-0.04,0.04-0.1,0.11-0.08
		c0.07,0.02,0.02,0.09,0.03,0.13c0.18-0.06,0.15,0.19,0.28,0.2c0-0.05-0.06-0.13,0.06-0.12c0.06,0,0.11,0,0.11,0.08
		c0,0.09-0.05,0.14-0.14,0.12C19.93,6.27,19.87,6.18,19.79,6.13z M19.86,6.79c-0.11,0.1-0.22,0.09-0.3-0.02
		c-0.09-0.11,0.04-0.17,0.09-0.24c0.12-0.16,0.17,0.02,0.26,0.06C19.97,6.67,19.95,6.74,19.86,6.79z M20.09,7.49
		c0.02-0.04,0.05-0.08,0.08-0.09c0.05-0.01,0.07,0.04,0.07,0.08c0,0.06-0.04,0.1-0.08,0.11C20.09,7.57,20.06,7.54,20.09,7.49z
		 M19.98,1.63c0.11,0.08,0.11,0.16-0.03,0.17c-0.15,0.02-0.31-0.01-0.46-0.01C19.61,1.6,19.86,1.8,19.98,1.63z M19.83,9.98
		c0.05-0.02,0.1-0.05,0.15-0.07c0.07-0.01,0.16-0.01,0.16-0.11c0-0.2,0.14-0.18,0.25-0.14c0.14,0.06,0.05,0.16,0,0.23
		c-0.07,0.08-0.08,0.17-0.09,0.27c-0.08,0.18-0.26,0.14-0.4,0.2c-0.15,0.02-0.3,0.04-0.38-0.14c-0.2,0.02-0.25-0.22-0.44-0.24
		C19.3,9.82,19.55,9.82,19.83,9.98z M19.86,12.8c-0.07,0.04-0.13,0.04-0.2,0c0.04-0.09,0.1-0.13,0.19-0.07
		C19.86,12.74,19.87,12.8,19.86,12.8z M19.12,10.29c0.01-0.05,0.02-0.11,0.09-0.11c0.06,0,0.09,0.03,0.11,0.09
		c-0.01,0.06-0.06,0.08-0.11,0.08C19.16,10.35,19.11,10.35,19.12,10.29z M19.35,22.57c-0.3-0.07-0.21-0.36-0.2-0.65
		c0.27,0.27,0.53,0.4,0.85,0.1C19.84,22.3,19.71,22.65,19.35,22.57z M20.37,10.86c-0.01-0.21-0.18-0.05-0.26-0.1
		c-0.05,0.06-0.13,0.06-0.14-0.01c-0.01-0.09,0.09-0.05,0.14-0.07c0.24-0.14,0.54-0.11,0.79-0.34c0,0.18-0.01,0.31,0,0.45
		c0.01,0.17-0.06,0.31-0.22,0.31C20.55,11.1,20.38,11.08,20.37,10.86z M20.49,28.52c-0.07-0.07-0.08-0.14-0.02-0.22
		c0.15-0.03,0.29,0.11,0.44,0.01C21.05,28.94,20.61,28.39,20.49,28.52z M21.13,27.98c-0.28-0.01-0.24-0.12-0.08-0.27
		c0.07,0.01,0.16-0.04,0.2,0.04C21.29,27.86,21.18,27.91,21.13,27.98z M21.61,5.33c-0.14-0.15-0.31-0.28-0.48-0.39
		c-0.1-0.06-0.16-0.06-0.18,0.06c0.08,0.13,0.1,0.26-0.04,0.37c-0.15-0.22-0.16-0.35-0.01-0.62c0.09-0.08,0.19-0.09,0.3-0.06
		c0.23,0.03,0.26,0.27,0.42,0.37C21.61,5.17,21.61,5.25,21.61,5.33z M21.67,5.34c0.06-0.07,0.12-0.08,0.18-0.01
		c0.04,0.06,0.02,0.12-0.05,0.15C21.85,5.35,21.75,5.35,21.67,5.34z M21.72,23.48c0.02-0.04,0.09-0.09,0.14-0.09
		c0.04,0,0.08,0.07,0.12,0.12c-0.05,0.03-0.1,0.07-0.13,0.09C21.73,23.6,21.69,23.53,21.72,23.48z M22.12,27.64
		c-0.01,0.12-0.08,0.21-0.2,0.22c-0.11,0.01-0.11-0.08-0.11-0.16c0-0.14,0.08-0.2,0.21-0.22C22.11,27.48,22.12,27.57,22.12,27.64z
		 M22.18,8.41c-0.06,0-0.12,0-0.19,0c-0.03,0.06,0.02,0.21-0.1,0.18c-0.1-0.03-0.02-0.16-0.03-0.25c-0.04-0.08,0.01-0.13,0.06-0.17
		c0.11-0.02,0.17,0.07,0.25,0.11l0-0.02c0.02,0.01,0.04,0.02,0.06,0.01c0.03,0.06,0.17,0.07,0.12,0.16
		C22.31,8.54,22.25,8.41,22.18,8.41z M22.58,27.74c-0.03-0.13-0.07-0.26-0.1-0.39c-0.23-0.16-0.17-0.32,0.01-0.47
		c0.26,0.06,0.17,0.31,0.26,0.46l-0.01-0.01c0.06,0.11,0.13,0.22,0.19,0.32C22.88,27.95,22.74,27.86,22.58,27.74z M22.52,8.02
		c0.09-0.05,0.18-0.14,0.25,0.03c-0.14,0.01-0.08,0.09-0.07,0.16c0.04,0.05,0.17,0.06,0.12,0.15c-0.05,0.1-0.17,0.09-0.25,0.07
		c-0.11-0.04-0.07-0.11,0-0.16C22.55,8.18,22.54,8.1,22.52,8.02z M22.97,6.63c-0.14,0.07-0.21-0.06-0.22-0.13
		c-0.02-0.3-0.23-0.27-0.39-0.21c-0.2,0.08-0.09-0.07-0.11-0.11c0.15-0.13,0.27,0.04,0.41,0.06c0.15,0.02,0.29,0.05,0.43-0.04
		c0.04,0.11,0.15,0.2,0.07,0.34C23.18,6.71,23.06,6.64,22.97,6.63z M23.23,8.02c-0.08-0.05-0.19-0.08-0.2-0.21
		c0.04-0.04-0.05-0.24,0.12-0.11C23.24,7.79,23.29,7.9,23.23,8.02z M23.4,5.84c-0.01,0.09-0.07,0.09-0.14,0.1
		c-0.2-0.13-0.34-0.3-0.42-0.55c0.11-0.04,0.31,0.2,0.35-0.1c0-0.03,0.16-0.08,0.23-0.06c0.19,0.05,0.39,0.1,0.55,0.21
		c0.25,0.18,0.02,0.34-0.07,0.49c-0.02,0.03-0.15-0.02-0.1,0.1c0.03,0.07,0.1,0.12,0.18,0.1c0.11-0.03,0.22-0.1,0.34-0.06
		c0.06,0.1,0.17,0.19,0.06,0.32c-0.01,0.07,0.03,0.21-0.13,0.13c-0.18-0.09-0.36-0.18-0.54-0.26c-0.1-0.05-0.24-0.13-0.2-0.22
		c0.05-0.11-0.01-0.32,0.25-0.29C23.55,5.53,23.43,5.58,23.4,5.84z M23.55,7.02C23.54,7,23.52,6.99,23.51,6.98
		c0.01-0.15,0.11-0.09,0.18-0.07c0.04,0.01,0.08,0.04,0.05,0.09C23.69,7.09,23.62,7.04,23.55,7.02z M23.71,7.14
		c0.02-0.03,0.07-0.04,0.11-0.06c0,0,0.02,0.02,0.04,0.05c-0.04,0.02-0.07,0.04-0.1,0.05C23.71,7.2,23.69,7.17,23.71,7.14z
		 M23.83,8.46c-0.05-0.04-0.04-0.1-0.01-0.14C23.9,8.23,23.95,8.31,24,8.36l-0.01,0.01L24,8.39C23.95,8.43,23.93,8.54,23.83,8.46z
		 M24.18,11.8c-0.06,0.07-0.12,0.07-0.18-0.01c-0.08-0.11-0.02-0.26-0.11-0.39c-0.04-0.05,0.05-0.09,0.11-0.03
		C24.32,11.44,24.37,11.57,24.18,11.8z M24.26,10.1c-0.05-0.01-0.11-0.03-0.11-0.09c0-0.06,0.06-0.05,0.09-0.05
		c0.06,0,0.11,0,0.11,0.08C24.34,10.09,24.31,10.11,24.26,10.1z M24.44,8.93c-0.07,0.1-0.06,0.27-0.21,0.28
		c-0.05,0-0.15-0.12-0.11-0.2c0.04-0.08,0.03-0.21,0.15-0.24C24.35,8.82,24.5,8.85,24.44,8.93z M24.59,8.53
		c-0.22,0.01-0.09-0.1-0.07-0.18c-0.04-0.05-0.08-0.1-0.12-0.15c0-0.04-0.02-0.1,0.04-0.1c0.11,0,0.1,0.12,0.16,0.18
		C24.76,8.36,24.51,8.43,24.59,8.53z M24.86,9.77c-0.02,0.06-0.07,0.08-0.12,0.08c-0.06,0.01-0.08-0.03-0.05-0.07
		c0.03-0.04,0.08-0.06,0.13-0.08C24.84,9.7,24.87,9.73,24.86,9.77z M24.84,7.16c-0.04,0.1-0.12-0.12-0.19-0.19v0
		c-0.02,0-0.04,0-0.06,0.01c-0.02-0.15-0.04-0.31-0.07-0.46c0.07,0.13,0.13,0.26,0.2,0.39c0.17-0.28,0.35,0,0.52,0
		C25.14,7.04,24.93,6.95,24.84,7.16z M25.95,6.91c-0.09-0.02-0.17-0.14-0.26,0c0.29,0.27,0.25,0.38-0.27,0.74
		c-0.15-0.21-0.15-0.44-0.12-0.68c0.04-0.07,0.09-0.14,0.13-0.2c-0.23-0.1-0.02-0.2,0-0.31c0.09-0.09,0.16-0.2,0.27-0.27
		c0.15-0.1,0.26-0.08,0.25,0.13c-0.18,0.02-0.19,0.06-0.05,0.2C26,6.61,26.33,6.74,25.95,6.91z M26.07,5.99
		c-0.21-0.04-0.06-0.21-0.12-0.3c-0.17-0.25,0.11-0.15,0.17-0.19c0.08-0.05,0.14-0.13,0.21-0.18c0.03,0.07,0.05,0.14,0.08,0.22
		c0.02,0.03,0.05,0.07,0.07,0.1c0.05,0.13,0.26-0.06,0.24,0.09c-0.01,0.12-0.16,0.2-0.31,0.2c-0.06,0.07-0.07,0.18-0.19,0.19
		C26.19,6.06,26.13,6.02,26.07,5.99z M26.4,6.33c0.01,0.18-0.1,0.21-0.25,0.18c0-0.05,0.01-0.1,0.06-0.12c0-0.04,0-0.08,0-0.12
		c0.08-0.01,0.17-0.01,0.25-0.02C26.45,6.27,26.42,6.3,26.4,6.33z M26.81,8.47c-0.08,0.05-0.1-0.05-0.15-0.07
		c-0.03-0.01-0.04-0.04-0.06-0.06c-0.07-0.01-0.15,0.02-0.18-0.08c-0.01-0.02,0.02-0.07,0.03-0.07c0.08,0.01,0.12,0.08,0.15,0.14
		c0.03,0,0.06,0,0.09,0c0.06,0.01,0.13-0.01,0.14,0.08C26.84,8.44,26.83,8.46,26.81,8.47z M26.96,9.18c-0.05,0-0.08-0.03-0.08-0.08
		c-0.01-0.08,0.05-0.11,0.11-0.13c0.06-0.01,0.06,0.03,0.07,0.07C27.06,9.12,27.04,9.18,26.96,9.18z M27.25,11.7
		c0,0.04-0.04,0.04-0.07,0.03c-0.1-0.02-0.08-0.08-0.05-0.15c0,0,0,0,0,0c0,0,0,0,0,0c0,0,0,0,0,0l0,0l0,0c0,0,0,0,0,0
		C27.19,11.6,27.25,11.62,27.25,11.7z M27.21,8.99c-0.06-0.03-0.14-0.11-0.12-0.2c0.01-0.07,0.08-0.1,0.15-0.08
		c0.08,0.02,0.11,0.09,0.14,0.15C27.32,8.92,27.27,9.02,27.21,8.99z M27.37,8.01C27.37,8.01,27.37,8.01,27.37,8.01
		c-0.15,0.17-0.29,0.26-0.54,0.13c-0.28-0.16-0.35-0.42-0.09-0.71c-0.02,0.2,0.13,0.32,0.1,0.51c0.13-0.24,0.31-0.42,0.48-0.61
		c-0.06-0.06-0.11-0.12,0.01-0.16c0.06-0.02,0.13-0.01,0.14,0.08c0,0.08-0.01,0.16-0.02,0.25c0.04,0.12,0.17,0.02,0.25,0.09
		c-0.1,0.05-0.22,0.04-0.11,0.22C27.65,7.89,27.66,8.15,27.37,8.01z M27.57,11.43c-0.04-0.01-0.05-0.05-0.02-0.07
		c0.02-0.02,0.06-0.02,0.09-0.02c0,0,0.01,0.03,0.02,0.06C27.63,11.41,27.6,11.43,27.57,11.43z M27.6,8.37
		c-0.05,0.01-0.08-0.02-0.08-0.07c0.01-0.05,0.05-0.07,0.09-0.06c0.04,0.01,0.06,0.05,0.1,0.07C27.67,8.33,27.64,8.36,27.6,8.37z
		 M27.71,9.16c0.14-0.18,0.29-0.08,0.45-0.08C28.04,9.29,27.89,9.21,27.71,9.16z M28.14,11.16c0.29,0.03,0.49,0.03,0.61,0.25
		C28.53,11.46,28.35,11.44,28.14,11.16z M28.85,10.94c-0.09-0.05-0.17-0.11-0.17-0.22c0-0.08,0.08-0.08,0.14-0.06
		c0.08,0.03,0.13,0.08,0.13,0.17C28.95,10.9,28.92,10.94,28.85,10.94z M29.08,8.62c0.13,0.07,0.01,0.22,0.06,0.33
		c-0.06-0.06-0.13-0.12-0.19-0.18C28.95,8.67,29.02,8.58,29.08,8.62z M29.34,10.89C29.34,10.89,29.34,10.89,29.34,10.89
		C29.34,10.89,29.34,10.89,29.34,10.89c-0.01-0.01-0.01-0.01-0.02-0.01c0.01,0,0.01-0.01,0.02-0.01
		C29.34,10.88,29.34,10.89,29.34,10.89z"/>
	<path d="M7.24,19.72c0.03,0,0.03-0.02,0.03-0.05C7.26,19.68,7.25,19.7,7.24,19.72z"/>
</g>
</svg>
