<?xml version="1.0" encoding="utf-8"?>
<!-- Generator: Adobe Illustrator 18.0.0, SVG Export Plug-In . SVG Version: 6.00 Build 0)  -->
<!DOCTYPE svg PUBLIC "-//W3C//DTD SVG 1.1//EN" "http://www.w3.org/Graphics/SVG/1.1/DTD/svg11.dtd">
<svg version="1.1" xmlns="http://www.w3.org/2000/svg" xmlns:xlink="http://www.w3.org/1999/xlink" x="0px" y="0px"
	 viewBox="0 0 30 30" enable-background="new 0 0 30 30" xml:space="preserve">
<g id="Background_xA0_Image_1_">
</g>
<g id="Row_1_1_">
	<g>
		<path fill="#FFFFFF" d="M19.6,16.3c-1.1,0-1.9,1.2-1.9,2.7c0,1.5,0.9,2.7,1.9,2.7c1.1,0,2-1.2,2-2.7
			C21.5,17.5,20.6,16.3,19.6,16.3z M26.4,9.2c0.2-0.5,0.2-3.7-1-6.6c0,0-2.7,0.3-6.8,3.1c-0.9-0.2-2.3-0.4-3.8-0.4
			c-1.5,0-2.9,0.1-3.8,0.4C6.9,2.9,4.2,2.6,4.2,2.6C3,5.6,3,8.7,3.2,9.2C1.9,10.8,1,12.6,1,15c0,10.8,8.9,11,11.2,11
			c0.5,0,1.5,0,2.6,0c1.1,0,2.1,0,2.6,0c2.3,0,11.2-0.2,11.2-11C28.6,12.6,27.8,10.8,26.4,9.2z M14.8,24.7L14.8,24.7
			c-5.7,0-10.1-0.7-10.1-6.2c0-1.3,0.5-2.5,1.6-3.6c1.8-1.7,5-0.8,8.5-0.8c0,0,0,0,0,0c0,0,0,0,0,0c3.5,0,6.7-0.9,8.5,0.8
			c1.1,1,1.6,2.2,1.6,3.6C24.9,24,20.5,24.7,14.8,24.7z M10,16.3c-1.1,0-1.9,1.2-1.9,2.7c0,1.5,0.9,2.7,1.9,2.7c1.1,0,2-1.2,2-2.7
			C12,17.5,11.1,16.3,10,16.3z"/>
	</g>
</g>
</svg>
